<svg xmlns="http://www.w3.org/2000/svg" xmlns:xlink="http://www.w3.org/1999/xlink" viewBox="-8314 7773.813 386.427 159.105">
  <defs>
    <style>
      .cls-1 {
        fill: none;
      }

      .cls-2 {
        clip-path: url(#clip-path);
      }

      .cls-3 {
        fill: #fff;
      }
    </style>
    <clipPath id="clip-path">
      <path id="Path_33" data-name="Path 33" class="cls-1" d="M0-47.627H386.427V-206.732H0Z" transform="translate(0 206.732)"/>
    </clipPath>
  </defs>
  <g id="Group_68" data-name="Group 68" transform="translate(-8314 7773.813)">
    <g id="Group_67" data-name="Group 67" class="cls-2">
      <g id="Group_64" data-name="Group 64" transform="translate(0 0)">
        <path id="Path_30" data-name="Path 30" class="cls-3" d="M-36.362-31.675V-31.7c-8.375,12.953-23.682,20.186-43.625,20.186H-113.2a1.742,1.742,0,0,1-1.737-1.737v-89.385a1.742,1.742,0,0,1,1.737-1.737h33.21c18.569,0,33.121,6.129,41.8,17.334v0l30.84-6.947a79.548,79.548,0,0,0-70.936-43.51,79.552,79.552,0,0,0-79.521,77.349c-.01.383-.013.767-.018,1.152,0,.35-.013.7-.013,1.052A79.553,79.553,0,0,0-78.284,21.612,79.562,79.562,0,0,0-5.932-24.832Zm-17.76-26.46c0,17.792-10.182,27.143-26.83,27.143h-8.169a1.742,1.742,0,0,1-1.737-1.737V-83.152a1.742,1.742,0,0,1,1.737-1.737h8.169c16.235,0,26.83,9.092,26.83,26.754" transform="translate(157.837 137.493)"/>
      </g>
      <g id="Group_65" data-name="Group 65" transform="translate(187.844 80.583)">
        <path id="Path_31" data-name="Path 31" class="cls-3" d="M0-8.89H9.122c10.127,0,14.91-7.355,14.91-14.387S19.17-37.021,9.806-37.021H0ZM9.766-32.8c6.349,0,9.564,4.9,9.564,9.846,0,5.023-3.255,9.846-9.806,9.846h-4.9V-32.8Zm17.514-2.612a3.107,3.107,0,0,0,3.175,3.175,3.14,3.14,0,0,0,3.215-3.175,3.14,3.14,0,0,0-3.215-3.175,3.107,3.107,0,0,0-3.175,3.175M28.244-8.89H32.7V-29.144H28.244Zm25.511-6.189c0-4.14-3.938-4.983-7.355-5.667-2.692-.483-4.782-.964-4.782-2.733,0-1.527,1.608-2.29,3.577-2.29a7.941,7.941,0,0,1,4.943,1.728l2.532-3.3a12.619,12.619,0,0,0-7.475-2.33c-4.26,0-8.078,1.929-8.078,6.269,0,4.581,4.14,5.706,7.435,6.429,2.532.563,4.7.924,4.7,2.452,0,1.165-1.528,2.09-3.657,2.09a8.329,8.329,0,0,1-6.51-3.135l-3.3,3.095c2.17,2.692,6.028,4.018,9.4,4.018,4.582,0,8.56-2.451,8.56-6.63M75.2-14.034l-3.255-2.25A6.387,6.387,0,0,1,66.2-12.667a6.05,6.05,0,0,1-6.068-6.43,6.076,6.076,0,0,1,6.149-6.47,5.941,5.941,0,0,1,5.1,2.733l2.974-2.814a10.229,10.229,0,0,0-8.279-4.018c-5.184,0-10.328,3.576-10.328,10.609,0,6.912,5.064,10.609,10.167,10.609A10.456,10.456,0,0,0,75.2-14.034M87.27-29.667A10.3,10.3,0,0,0,76.7-19.057,10.3,10.3,0,0,0,87.27-8.448,10.306,10.306,0,0,0,97.879-19.057,10.306,10.306,0,0,0,87.27-29.667m0,4.1A6.124,6.124,0,0,1,93.5-19.1a6.124,6.124,0,0,1-6.229,6.47,6.115,6.115,0,0,1-6.189-6.47,6.115,6.115,0,0,1,6.189-6.47m31.615-3.576h-4.943l-5.3,14.708-5.345-14.708H98.309L106.427-8.89h4.38ZM138.93-19.58c0-6.832-4.3-10.087-9.243-10.087-5.264,0-10.328,3.616-10.328,10.529A10.291,10.291,0,0,0,129.888-8.448a10.837,10.837,0,0,0,8.721-4.26l-2.853-2.773a6.794,6.794,0,0,1-5.707,2.854c-2.612,0-5.184-1.246-5.868-4.421h14.588a15.433,15.433,0,0,0,.161-2.532m-9.444-6.108a4.746,4.746,0,0,1,4.983,4.943H124.061a5.274,5.274,0,0,1,5.425-4.943m22.653-3.737a5.654,5.654,0,0,0-5.144,2.733v-2.451h-4.38V-8.89h4.461V-20.1c0-3.5,1.889-4.862,4.139-4.862a6.539,6.539,0,0,1,2.572.523l1.005-4.5a7.976,7.976,0,0,0-2.653-.483M175.1-19.58c0-6.832-4.3-10.087-9.243-10.087-5.265,0-10.328,3.616-10.328,10.529A10.291,10.291,0,0,0,166.06-8.448a10.838,10.838,0,0,0,8.721-4.26l-2.853-2.773a6.794,6.794,0,0,1-5.707,2.854c-2.612,0-5.184-1.246-5.868-4.421h14.588a15.433,15.433,0,0,0,.161-2.532m-9.444-6.108a4.746,4.746,0,0,1,4.983,4.943H160.233a5.274,5.274,0,0,1,5.425-4.943m32.925-11.333h-4.462v10.047a8.117,8.117,0,0,0-6.389-2.692c-4.983,0-10.127,3.616-10.127,10.569,0,6.792,4.662,10.649,9.645,10.649A9.054,9.054,0,0,0,194.2-11.5V-8.89h4.381Zm-10.61,24.514c-3.175,0-5.988-2.21-5.988-6.55,0-4.461,2.934-6.631,6.028-6.631,3.055,0,6.108,2.21,6.108,6.591s-3.094,6.59-6.148,6.59" transform="translate(0 38.588)"/>
      </g>
      <g id="Group_66" data-name="Group 66" transform="translate(187.04 44.03)">
        <path id="Path_32" data-name="Path 32" class="cls-3" d="M-7.759-6.58-10.13-8.107A10.374,10.374,0,0,1-19.494-2.2c-5.345,0-11.012-4.019-11.012-11.815,0-7.475,4.983-11.614,11.213-11.614a10.252,10.252,0,0,1,8.158,3.737l2.17-2.29a13.764,13.764,0,0,0-10.328-4.381c-6.993,0-14.387,4.742-14.387,14.709,0,9.725,7.194,14.708,13.9,14.708A13.786,13.786,0,0,0-7.759-6.58M5.531-20.566c-5.988,0-10.368,4.542-10.368,10.61S-.457.653,5.531.653,15.859-3.887,15.859-9.956s-4.341-10.61-10.328-10.61m0,2.773c4.26,0,7.314,3.3,7.314,7.8S9.791-2.2,5.531-2.2c-4.3,0-7.314-3.3-7.314-7.8s3.015-7.8,7.314-7.8M37.439-13.01c0-5.1-3.5-7.555-7.234-7.555a8,8,0,0,0-7.033,4.019v-3.5H20.118V.212h3.055V-10.077c0-4.983,3.376-7.6,6.43-7.6,2.491,0,4.782,1.728,4.782,5.385V.212h3.055Zm16.946,11.9L52.979-3.124A4.649,4.649,0,0,1,50.126-2c-1.688,0-2.934-1.125-2.934-3.5V-17.23h5.064v-2.813H47.192v-5.184H44.178v5.184H40.32v2.813h3.858v11.7c0,4.38,2.773,6.189,5.707,6.189a6.525,6.525,0,0,0,4.5-1.768M74.149-3.606,72.14-5.5a7.3,7.3,0,0,1-6.349,3.3c-3.5,0-6.43-1.849-6.993-6.309H74.31a12.456,12.456,0,0,0,.2-2.331c0-5.144-3.014-9.726-8.921-9.726-5.184,0-10.127,3.577-10.127,10.61C55.462-3.165,60.124.693,65.469.693a10.962,10.962,0,0,0,8.681-4.3M58.677-11.323c.362-4.219,3.256-6.429,6.511-6.429,2.974,0,6.068,1.929,6.108,6.429ZM96.208-13.01c0-5.1-3.5-7.555-7.234-7.555a8,8,0,0,0-7.033,4.019v-3.5H78.887V.212h3.054V-10.077c0-4.983,3.376-7.6,6.43-7.6,2.492,0,4.782,1.728,4.782,5.385V.212h3.054Zm16.947,11.9-1.407-2.009A4.645,4.645,0,0,1,108.895-2c-1.688,0-2.934-1.125-2.934-3.5V-17.23h5.063v-2.813h-5.063v-5.184h-3.014v5.184H99.089v2.813h3.858v11.7c0,4.38,2.773,6.189,5.706,6.189a6.527,6.527,0,0,0,4.5-1.768" transform="translate(33.68 28.563)"/>
      </g>
    </g>
  </g>
</svg>
