<svg xmlns="http://www.w3.org/2000/svg" xmlns:xlink="http://www.w3.org/1999/xlink" xmlns:dc="http://purl.org/dc/elements/1.1/" xmlns:cc="http://web.resource.org/cc/" xmlns:rdf="http://www.w3.org/1999/02/22-rdf-syntax-ns#" xmlns:sodipodi="http://sodipodi.sourceforge.net/DTD/sodipodi-0.dtd" xmlns:inkscape="http://www.inkscape.org/namespaces/inkscape" version="1.1" baseProfile="full" width="152" height="159" viewBox="0 0 152 159" preserveAspectRatio="xMidYMid meet" class="cdLogo" style="zoom: 1;">
    <svg xmlns="http://www.w3.org/2000/svg" xmlns:xlink="http://www.w3.org/1999/xlink" id="svg1" viewBox="0 0 152 159">
        <g id="Group_68" data-name="Group 68" transform="translate(0 0)">
            <g id="Group_67" data-name="Group 67" class="cls-2">
                <g id="Group_64" data-name="Group 64" transform="translate(0 0)">
                    <path
                        id="Path_30"
                        data-name="Path 30"
                        class="cls-3"
                        d="M-36.362-31.675V-31.7c-8.375,12.953-23.682,20.186-43.625,20.186H-113.2a1.742,1.742,0,0,1-1.737-1.737v-89.385a1.742,1.742,0,0,1,1.737-1.737h33.21c18.569,0,33.121,6.129,41.8,17.334v0l30.84-6.947a79.548,79.548,0,0,0-70.936-43.51,79.552,79.552,0,0,0-79.521,77.349c-.01.383-.013.767-.018,1.152,0,.35-.013.7-.013,1.052A79.553,79.553,0,0,0-78.284,21.612,79.562,79.562,0,0,0-5.932-24.832Zm-17.76-26.46c0,17.792-10.182,27.143-26.83,27.143h-8.169a1.742,1.742,0,0,1-1.737-1.737V-83.152a1.742,1.742,0,0,1,1.737-1.737h8.169c16.235,0,26.83,9.092,26.83,26.754"
                        transform="translate(157.837 137.493)"
                    />
                </g>
            </g>
        </g>
    </svg>
</svg>
